# Blender v2.91.0 OBJ File: '01.blend'
# www.blender.org
o lefthip_Cube.006
v 0.034327 5.710188 -0.747225
v 0.034327 3.116955 -0.509985
v 0.034327 5.710188 0.083160
v 0.028553 3.117809 0.075057
v -0.878673 5.710188 -0.747225
v -0.618244 3.116955 -0.509985
v -0.878673 5.710188 0.083160
v -0.624018 3.117809 0.075057
vt 0.875000 0.500000
vt 0.625000 0.750000
vt 0.625000 0.500000
vt 0.375000 1.000000
vt 0.375000 0.750000
vt 0.625000 0.000000
vt 0.375000 0.250000
vt 0.375000 0.000000
vt 0.125000 0.500000
vt 0.125000 0.750000
vt 0.375000 0.500000
vt 0.875000 0.750000
vt 0.625000 1.000000
vt 0.625000 0.250000
vn 0.0000 1.0000 0.0000
vn 0.0000 -0.0031 1.0000
vn -0.9952 -0.0977 -0.0097
vn 0.0000 -1.0000 0.0015
vn 0.9999 -0.0023 0.0099
vn 0.0000 -0.0911 -0.9958
vn -0.9950 -0.0999 0.0000
vn 1.0000 0.0000 0.0000
s off
f 5/1/1 3/2/1 1/3/1
f 3/2/2 8/4/2 4/5/2
f 7/6/3 6/7/3 8/8/3
f 6/9/4 4/5/4 8/10/4
f 2/11/5 3/2/5 4/5/5
f 6/7/6 1/3/6 2/11/6
f 5/1/1 7/12/1 3/2/1
f 3/2/2 7/13/2 8/4/2
f 7/6/7 5/14/7 6/7/7
f 6/9/4 2/11/4 4/5/4
f 2/11/8 1/3/8 3/2/8
f 6/7/6 5/14/6 1/3/6
o leftknee_Cube.009
v 0.031136 3.105787 -0.507072
v 0.031136 0.631562 -0.347981
v 0.031136 3.105787 0.056886
v 0.031136 0.631562 0.026800
v -0.609758 3.105787 -0.507072
v -0.432162 0.631562 -0.347981
v -0.609758 3.105787 0.056886
v -0.432162 0.631562 0.026800
vt 0.875000 0.500000
vt 0.625000 0.750000
vt 0.625000 0.500000
vt 0.375000 1.000000
vt 0.375000 0.750000
vt 0.625000 0.000000
vt 0.375000 0.250000
vt 0.375000 0.000000
vt 0.375000 0.500000
vt 0.125000 0.750000
vt 0.125000 0.500000
vt 0.875000 0.750000
vt 0.625000 1.000000
vt 0.625000 0.250000
vn 0.0000 1.0000 0.0000
vn 0.0000 -0.0122 0.9999
vn -0.9974 -0.0716 0.0000
vn 0.0000 -1.0000 0.0000
vn 1.0000 -0.0000 0.0000
vn 0.0000 -0.0642 -0.9979
s off
f 13/15/9 11/16/9 9/17/9
f 11/16/10 16/18/10 12/19/10
f 15/20/11 14/21/11 16/22/11
f 10/23/12 16/24/12 14/25/12
f 10/23/13 11/16/13 12/19/13
f 14/21/14 9/17/14 10/23/14
f 13/15/9 15/26/9 11/16/9
f 11/16/10 15/27/10 16/18/10
f 15/20/11 13/28/11 14/21/11
f 10/23/12 12/19/12 16/24/12
f 10/23/13 9/17/13 11/16/13
f 14/21/14 13/28/14 9/17/14
o leftankle_Cube.011
v 0.850231 0.542886 -0.441683
v 0.850231 0.349202 -0.441683
v 0.850231 0.542886 0.085400
v 0.850231 0.349202 0.085400
v -0.584827 0.607051 -0.441683
v -0.584827 0.349202 -0.441683
v -0.584827 0.607051 0.085400
v -0.584827 0.349202 0.085400
vt 0.875000 0.500000
vt 0.625000 0.750000
vt 0.625000 0.500000
vt 0.375000 1.000000
vt 0.375000 0.750000
vt 0.625000 0.000000
vt 0.375000 0.250000
vt 0.375000 0.000000
vt 0.375000 0.500000
vt 0.125000 0.750000
vt 0.125000 0.500000
vt 0.875000 0.750000
vt 0.625000 1.000000
vt 0.625000 0.250000
vn 0.0447 0.9990 0.0000
vn 0.0000 0.0000 1.0000
vn -1.0000 0.0000 0.0000
vn 0.0000 -1.0000 0.0000
vn 1.0000 0.0000 0.0000
vn 0.0000 0.0000 -1.0000
s off
f 21/29/15 19/30/15 17/31/15
f 19/30/16 24/32/16 20/33/16
f 23/34/17 22/35/17 24/36/17
f 18/37/18 24/38/18 22/39/18
f 17/31/19 20/33/19 18/37/19
f 22/35/20 17/31/20 18/37/20
f 21/29/15 23/40/15 19/30/15
f 19/30/16 23/41/16 24/32/16
f 23/34/17 21/42/17 22/35/17
f 18/37/18 20/33/18 24/38/18
f 17/31/19 19/30/19 20/33/19
f 22/35/20 21/42/20 17/31/20
o neck_Cube.012
v -0.272270 8.703546 -0.224155
v -0.272270 8.388471 -0.224155
v -0.272270 8.703546 0.502103
v -0.272270 8.388471 0.502103
v -0.699312 8.703546 -0.224155
v -0.699312 8.388471 -0.224155
v -0.699312 8.703546 0.502103
v -0.699312 8.388471 0.502103
vt 0.875000 0.500000
vt 0.625000 0.750000
vt 0.625000 0.500000
vt 0.375000 1.000000
vt 0.375000 0.750000
vt 0.625000 0.000000
vt 0.375000 0.250000
vt 0.375000 0.000000
vt 0.375000 0.500000
vt 0.125000 0.750000
vt 0.125000 0.500000
vt 0.625000 0.250000
vt 0.875000 0.750000
vt 0.625000 1.000000
vn 0.0000 1.0000 0.0000
vn 0.0000 0.0000 1.0000
vn -1.0000 0.0000 0.0000
vn 0.0000 -1.0000 0.0000
vn 1.0000 0.0000 0.0000
vn 0.0000 0.0000 -1.0000
s off
f 29/43/21 27/44/21 25/45/21
f 27/44/22 32/46/22 28/47/22
f 31/48/23 30/49/23 32/50/23
f 26/51/24 32/52/24 30/53/24
f 25/45/25 28/47/25 26/51/25
f 29/54/26 26/51/26 30/49/26
f 29/43/21 31/55/21 27/44/21
f 27/44/22 31/56/22 32/46/22
f 31/48/23 29/54/23 30/49/23
f 26/51/24 28/47/24 32/52/24
f 25/45/25 27/44/25 28/47/25
f 29/54/26 25/45/26 26/51/26
o head_Cube.013
v -0.022410 9.640633 -0.338743
v -0.022410 8.721087 -0.338743
v -0.022410 9.640633 0.580804
v -0.022410 8.721087 0.580804
v -0.941956 9.640633 -0.338743
v -0.941956 8.721087 -0.338743
v -0.941956 9.640633 0.580804
v -0.941956 8.721087 0.580804
vt 0.875000 0.500000
vt 0.625000 0.750000
vt 0.625000 0.500000
vt 0.375000 1.000000
vt 0.375000 0.750000
vt 0.625000 0.000000
vt 0.375000 0.250000
vt 0.375000 0.000000
vt 0.375000 0.500000
vt 0.125000 0.750000
vt 0.125000 0.500000
vt 0.625000 0.250000
vt 0.875000 0.750000
vt 0.625000 1.000000
vn 0.0000 1.0000 0.0000
vn 0.0000 0.0000 1.0000
vn -1.0000 0.0000 0.0000
vn 0.0000 -1.0000 0.0000
vn 1.0000 0.0000 0.0000
vn 0.0000 0.0000 -1.0000
s off
f 37/57/27 35/58/27 33/59/27
f 35/58/28 40/60/28 36/61/28
f 39/62/29 38/63/29 40/64/29
f 34/65/30 40/66/30 38/67/30
f 33/59/31 36/61/31 34/65/31
f 37/68/32 34/65/32 38/63/32
f 37/57/27 39/69/27 35/58/27
f 35/58/28 39/70/28 40/60/28
f 39/62/29 37/68/29 38/63/29
f 34/65/30 36/61/30 40/66/30
f 33/59/31 35/58/31 36/61/31
f 37/68/32 33/59/32 34/65/32
o body_Cube.014
v 0.013162 8.368107 -0.932402
v 0.013162 5.739169 -0.758821
v 0.013162 8.368107 1.142620
v 0.013162 5.739169 0.902352
v -1.112210 8.368107 -0.947115
v -0.840267 5.739169 -0.762004
v -1.126515 8.368561 1.144220
v -0.855226 5.718434 0.918200
vt 0.625000 0.500000
vt 0.875000 0.750000
vt 0.625000 0.750000
vt 0.375000 1.000000
vt 0.375000 0.750000
vt 0.375000 0.000000
vt 0.625000 0.250000
vt 0.375000 0.250000
vt 0.125000 0.500000
vt 0.125000 0.750000
vt 0.375000 0.500000
vt 0.875000 0.500000
vt 0.625000 1.000000
vt 0.625000 0.000000
vn 0.0004 1.0000 0.0000
vn 0.0203 -0.0910 0.9956
vn -0.9946 -0.1036 -0.0101
vn 0.0236 -0.9996 -0.0121
vn 1.0000 -0.0000 0.0000
vn 0.0037 -0.0659 -0.9978
vn 0.0000 1.0000 -0.0002
vn 0.0014 -0.0848 0.9964
vn -0.9948 -0.1013 -0.0068
vn 0.0000 -1.0000 0.0000
vn 0.0130 -0.0689 -0.9975
s off
f 41/71/33 47/72/33 43/73/33
f 43/73/34 48/74/34 44/75/34
f 48/76/35 45/77/35 46/78/35
f 46/79/36 44/75/36 48/80/36
f 41/71/37 44/75/37 42/81/37
f 46/78/38 41/71/38 42/81/38
f 41/71/39 45/82/39 47/72/39
f 43/73/40 47/83/40 48/74/40
f 48/76/41 47/84/41 45/77/41
f 46/79/42 42/81/42 44/75/42
f 41/71/37 43/73/37 44/75/37
f 46/78/43 45/77/43 41/71/43
o righthip_Cube.017
v 0.034327 5.710188 0.919132
v 0.034327 3.116955 0.676853
v 0.034327 5.710188 0.090034
v 0.028553 3.117809 0.116329
v -0.878673 5.710188 0.919132
v -0.618244 3.116955 0.676853
v -0.878673 5.710188 0.090034
v -0.624018 3.117809 0.116329
vt 0.875000 0.500000
vt 0.625000 0.500000
vt 0.625000 0.750000
vt 0.375000 0.750000
vt 0.375000 1.000000
vt 0.625000 0.000000
vt 0.375000 0.000000
vt 0.375000 0.250000
vt 0.125000 0.500000
vt 0.125000 0.750000
vt 0.375000 0.500000
vt 0.875000 0.750000
vt 0.625000 1.000000
vt 0.625000 0.250000
vn 0.0000 1.0000 0.0000
vn 0.0000 -0.0101 -0.9999
vn -0.9952 -0.0977 0.0101
vn 0.0000 -1.0000 -0.0015
vn 0.9999 -0.0023 -0.0103
vn 0.0000 -0.0930 0.9957
vn -0.9950 -0.0999 0.0000
vn 1.0000 0.0000 0.0000
s off
f 53/85/44 49/86/44 51/87/44
f 51/87/45 52/88/45 56/89/45
f 55/90/46 56/91/46 54/92/46
f 54/93/47 56/94/47 52/88/47
f 50/95/48 52/88/48 51/87/48
f 54/92/49 50/95/49 49/86/49
f 53/85/44 51/87/44 55/96/44
f 51/87/45 56/89/45 55/97/45
f 55/90/50 54/92/50 53/98/50
f 54/93/47 52/88/47 50/95/47
f 50/95/51 51/87/51 49/86/51
f 54/92/49 49/86/49 53/98/49
o rightknee_Cube.016
v 0.031136 3.105787 0.700042
v 0.031136 0.631562 0.540951
v 0.031136 3.105787 0.136084
v 0.031136 0.631562 0.166170
v -0.609758 3.105787 0.700042
v -0.432162 0.631562 0.540951
v -0.609758 3.105787 0.136084
v -0.432162 0.631562 0.166170
vt 0.875000 0.500000
vt 0.625000 0.500000
vt 0.625000 0.750000
vt 0.375000 0.750000
vt 0.375000 1.000000
vt 0.625000 0.000000
vt 0.375000 0.000000
vt 0.375000 0.250000
vt 0.375000 0.500000
vt 0.125000 0.500000
vt 0.125000 0.750000
vt 0.875000 0.750000
vt 0.625000 1.000000
vt 0.625000 0.250000
vn 0.0000 1.0000 0.0000
vn 0.0000 -0.0122 -0.9999
vn -0.9974 -0.0716 0.0000
vn 0.0000 -1.0000 0.0000
vn 1.0000 0.0000 0.0000
vn 0.0000 -0.0642 0.9979
s off
f 61/99/52 57/100/52 59/101/52
f 59/101/53 60/102/53 64/103/53
f 63/104/54 64/105/54 62/106/54
f 58/107/55 62/108/55 64/109/55
f 58/107/56 60/102/56 59/101/56
f 62/106/57 58/107/57 57/100/57
f 61/99/52 59/101/52 63/110/52
f 59/101/53 64/103/53 63/111/53
f 63/104/54 62/106/54 61/112/54
f 58/107/55 64/109/55 60/102/55
f 58/107/56 59/101/56 57/100/56
f 62/106/57 57/100/57 61/112/57
o rightankle_Cube.015
v 0.850231 0.542886 0.634653
v 0.850231 0.349202 0.634653
v 0.850231 0.542886 0.107570
v 0.850231 0.349202 0.107570
v -0.584827 0.607051 0.634653
v -0.584827 0.349202 0.634653
v -0.584827 0.607051 0.107570
v -0.584827 0.349202 0.107570
vt 0.875000 0.500000
vt 0.625000 0.500000
vt 0.625000 0.750000
vt 0.375000 0.750000
vt 0.375000 1.000000
vt 0.625000 0.000000
vt 0.375000 0.000000
vt 0.375000 0.250000
vt 0.375000 0.500000
vt 0.125000 0.500000
vt 0.125000 0.750000
vt 0.875000 0.750000
vt 0.625000 1.000000
vt 0.625000 0.250000
vn 0.0447 0.9990 0.0000
vn 0.0000 0.0000 -1.0000
vn -1.0000 0.0000 0.0000
vn 0.0000 -1.0000 0.0000
vn 1.0000 0.0000 0.0000
vn 0.0000 0.0000 1.0000
s off
f 69/113/58 65/114/58 67/115/58
f 67/115/59 68/116/59 72/117/59
f 71/118/60 72/119/60 70/120/60
f 66/121/61 70/122/61 72/123/61
f 65/114/62 66/121/62 68/116/62
f 70/120/63 66/121/63 65/114/63
f 69/113/58 67/115/58 71/124/58
f 67/115/59 72/117/59 71/125/59
f 71/118/60 70/120/60 69/126/60
f 66/121/61 72/123/61 68/116/61
f 65/114/62 68/116/62 67/115/62
f 70/120/63 65/114/63 69/126/63
o leftshoulder_Cube.019
v -0.037126 8.373615 -0.945635
v -0.037126 6.373615 -0.945635
v -0.037126 8.373615 -1.512286
v -0.037126 6.373615 -1.432320
v -0.816855 8.373615 -0.945635
v -0.606310 6.373615 -0.945635
v -0.816855 8.373615 -1.512286
v -0.606310 6.373615 -1.432320
vt 0.875000 0.500000
vt 0.625000 0.500000
vt 0.625000 0.750000
vt 0.375000 0.750000
vt 0.375000 1.000000
vt 0.375000 0.000000
vt 0.375000 0.250000
vt 0.625000 0.250000
vt 0.375000 0.500000
vt 0.125000 0.500000
vt 0.125000 0.750000
vt 0.875000 0.750000
vt 0.625000 1.000000
vt 0.625000 0.000000
vn 0.0000 1.0000 0.0000
vn 0.0000 -0.0400 -0.9992
vn -0.9945 -0.1047 0.0000
vn 0.0000 -1.0000 0.0000
vn 1.0000 0.0000 0.0000
vn 0.0000 0.0000 1.0000
s off
f 77/127/64 73/128/64 75/129/64
f 75/129/65 76/130/65 80/131/65
f 80/132/66 78/133/66 77/134/66
f 74/135/67 78/136/67 80/137/67
f 73/128/68 74/135/68 76/130/68
f 78/133/69 74/135/69 73/128/69
f 77/127/64 75/129/64 79/138/64
f 75/129/65 80/131/65 79/139/65
f 80/132/66 77/134/66 79/140/66
f 74/135/67 80/137/67 76/130/67
f 73/128/68 76/130/68 75/129/68
f 78/133/69 73/128/69 77/134/69
o leftelbow_Cube.018
v -0.006400 6.362472 -0.945635
v -0.006400 4.362472 -0.945635
v -0.006400 6.362472 -1.430899
v -0.006400 4.362472 -1.294074
v -0.587798 6.362472 -0.945635
v -0.358583 4.362472 -0.945635
v -0.587798 6.362472 -1.430899
v -0.358583 4.362472 -1.294074
vt 0.875000 0.500000
vt 0.625000 0.500000
vt 0.625000 0.750000
vt 0.375000 0.750000
vt 0.375000 1.000000
vt 0.375000 0.000000
vt 0.375000 0.250000
vt 0.625000 0.250000
vt 0.375000 0.500000
vt 0.125000 0.500000
vt 0.125000 0.750000
vt 0.875000 0.750000
vt 0.625000 1.000000
vt 0.625000 0.000000
vn 0.0000 1.0000 0.0000
vn 0.0000 -0.0683 -0.9977
vn -0.9935 -0.1139 0.0000
vn 0.0000 -1.0000 0.0000
vn 1.0000 0.0000 0.0000
vn 0.0000 0.0000 1.0000
s off
f 85/141/70 81/142/70 83/143/70
f 83/143/71 84/144/71 88/145/71
f 88/146/72 86/147/72 85/148/72
f 82/149/73 86/150/73 88/151/73
f 81/142/74 82/149/74 84/144/74
f 86/147/75 82/149/75 81/142/75
f 85/141/70 83/143/70 87/152/70
f 83/143/71 88/145/71 87/153/71
f 88/146/72 85/148/72 87/154/72
f 82/149/73 88/151/73 84/144/73
f 81/142/74 84/144/74 83/143/74
f 86/147/75 81/142/75 85/148/75
o leftwrist_Cube.023
v -0.014779 4.353189 -0.937794
v -0.014779 3.715541 -0.937794
v -0.014779 4.353189 -1.296121
v -0.014779 3.715541 -1.202842
v -0.322070 4.353189 -0.937794
v -0.254371 3.715541 -0.937794
v -0.322070 4.353189 -1.296121
v -0.254371 3.715541 -1.202842
vt 0.875000 0.500000
vt 0.625000 0.500000
vt 0.625000 0.750000
vt 0.375000 0.750000
vt 0.375000 1.000000
vt 0.375000 0.000000
vt 0.375000 0.250000
vt 0.625000 0.250000
vt 0.375000 0.500000
vt 0.125000 0.500000
vt 0.125000 0.750000
vt 0.875000 0.750000
vt 0.625000 1.000000
vt 0.625000 0.000000
vn 0.0000 1.0000 0.0000
vn 0.0000 -0.1447 -0.9895
vn -0.9944 -0.1056 0.0000
vn 0.0000 -1.0000 0.0000
vn 1.0000 0.0000 0.0000
vn 0.0000 0.0000 1.0000
s off
f 93/155/76 89/156/76 91/157/76
f 91/157/77 92/158/77 96/159/77
f 96/160/78 94/161/78 93/162/78
f 90/163/79 94/164/79 96/165/79
f 89/156/80 90/163/80 92/158/80
f 94/161/81 90/163/81 89/156/81
f 93/155/76 91/157/76 95/166/76
f 91/157/77 96/159/77 95/167/77
f 96/160/78 93/162/78 95/168/78
f 90/163/79 96/165/79 92/158/79
f 89/156/80 92/158/80 91/157/80
f 94/161/81 89/156/81 93/162/81
o rightelbow_Cube.026
v -0.006400 6.362472 1.161142
v -0.006400 4.362472 1.161142
v -0.006400 6.362472 1.646407
v -0.006400 4.362472 1.509581
v -0.587798 6.362472 1.161142
v -0.358583 4.362472 1.161142
v -0.587798 6.362472 1.646407
v -0.358583 4.362472 1.509581
vt 0.875000 0.500000
vt 0.625000 0.750000
vt 0.625000 0.500000
vt 0.375000 1.000000
vt 0.375000 0.750000
vt 0.375000 0.000000
vt 0.625000 0.250000
vt 0.375000 0.250000
vt 0.375000 0.500000
vt 0.125000 0.750000
vt 0.125000 0.500000
vt 0.875000 0.750000
vt 0.625000 1.000000
vt 0.625000 0.000000
vn 0.0000 1.0000 0.0000
vn 0.0000 -0.0683 0.9977
vn -0.9935 -0.1139 0.0000
vn 0.0000 -1.0000 0.0000
vn 1.0000 0.0000 0.0000
vn 0.0000 0.0000 -1.0000
s off
f 101/169/82 99/170/82 97/171/82
f 99/170/83 104/172/83 100/173/83
f 104/174/84 101/175/84 102/176/84
f 98/177/85 104/178/85 102/179/85
f 97/171/86 100/173/86 98/177/86
f 102/176/87 97/171/87 98/177/87
f 101/169/82 103/180/82 99/170/82
f 99/170/83 103/181/83 104/172/83
f 104/174/84 103/182/84 101/175/84
f 98/177/85 100/173/85 104/178/85
f 97/171/86 99/170/86 100/173/86
f 102/176/87 101/175/87 97/171/87
o rightshoulder_Cube.025
v -0.037126 8.373615 1.161142
v -0.037126 6.373615 1.161142
v -0.037126 8.373615 1.727794
v -0.037126 6.373615 1.647827
v -0.816855 8.373615 1.161142
v -0.606310 6.373615 1.161142
v -0.816855 8.373615 1.727794
v -0.606310 6.373615 1.647827
vt 0.875000 0.500000
vt 0.625000 0.750000
vt 0.625000 0.500000
vt 0.375000 1.000000
vt 0.375000 0.750000
vt 0.375000 0.000000
vt 0.625000 0.250000
vt 0.375000 0.250000
vt 0.375000 0.500000
vt 0.125000 0.750000
vt 0.125000 0.500000
vt 0.875000 0.750000
vt 0.625000 1.000000
vt 0.625000 0.000000
vn 0.0000 1.0000 0.0000
vn 0.0000 -0.0400 0.9992
vn -0.9945 -0.1047 0.0000
vn 0.0000 -1.0000 0.0000
vn 1.0000 0.0000 0.0000
vn 0.0000 0.0000 -1.0000
s off
f 109/183/88 107/184/88 105/185/88
f 107/184/89 112/186/89 108/187/89
f 112/188/90 109/189/90 110/190/90
f 106/191/91 112/192/91 110/193/91
f 105/185/92 108/187/92 106/191/92
f 110/190/93 105/185/93 106/191/93
f 109/183/88 111/194/88 107/184/88
f 107/184/89 111/195/89 112/186/89
f 112/188/90 111/196/90 109/189/90
f 106/191/91 108/187/91 112/192/91
f 105/185/92 107/184/92 108/187/92
f 110/190/93 109/189/93 105/185/93
o rightwrist_Cube.024
v -0.014779 4.353189 1.153301
v -0.014779 3.715541 1.153301
v -0.014779 4.353189 1.511628
v -0.014779 3.715541 1.418350
v -0.322070 4.353189 1.153301
v -0.254371 3.715541 1.153301
v -0.322070 4.353189 1.511628
v -0.254371 3.715541 1.418350
vt 0.875000 0.500000
vt 0.625000 0.750000
vt 0.625000 0.500000
vt 0.375000 1.000000
vt 0.375000 0.750000
vt 0.375000 0.000000
vt 0.625000 0.250000
vt 0.375000 0.250000
vt 0.375000 0.500000
vt 0.125000 0.750000
vt 0.125000 0.500000
vt 0.875000 0.750000
vt 0.625000 1.000000
vt 0.625000 0.000000
vn 0.0000 1.0000 0.0000
vn 0.0000 -0.1447 0.9895
vn -0.9944 -0.1056 0.0000
vn 0.0000 -1.0000 0.0000
vn 1.0000 0.0000 0.0000
vn 0.0000 0.0000 -1.0000
s off
f 117/197/94 115/198/94 113/199/94
f 115/198/95 120/200/95 116/201/95
f 120/202/96 117/203/96 118/204/96
f 114/205/97 120/206/97 118/207/97
f 113/199/98 116/201/98 114/205/98
f 118/204/99 113/199/99 114/205/99
f 117/197/94 119/208/94 115/198/94
f 115/198/95 119/209/95 120/200/95
f 120/202/96 119/210/96 117/203/96
f 114/205/97 116/201/97 120/206/97
f 113/199/98 115/198/98 116/201/98
f 118/204/99 117/203/99 113/199/99
